{
  "accessors": [
    {
      "bufferView": 2,
      "componentType": 5126,
      "count": 1266,
      "max": [
        1.0,
        0.06715290248394012,
        0.01830809935927391
      ],
      "min": [
        0.2311609983444214,
        -0.06715290248394012,
        -0.22365599870681763
      ],
      "type": "VEC3"
    },
    {
      "bufferView": 2,
      "byteOffset": 15192,
      "componentType": 5126,
      "count": 1266,
      "max": [
        0.9908507466316223,
        1.0,
        0.9694095253944397
      ],
      "min": [
        -0.9997118711471558,
        -1.0,
        -0.9702507853507996
      ],
      "type": "VEC3"
    },
    {
      "bufferView": 3,
      "componentType": 5126,
      "count": 1266,
      "max": [
        1.0,
        0.9764559864997864,
        0.9989740252494812,
        1.0
      ],
      "min": [
        -0.9591019749641418,
        -0.9705280065536499,
        -0.9999030232429504,
        -1.0
      ],
      "type": "VEC4"
    },
    {
      "bufferView": 1,
      "componentType": 5126,
      "count": 1266,
      "max": [
        1.0107300281524658,
        0.9929050207138062
      ],
      "min": [
        0.00492893997579813,
        0.07483000308275223
      ],
      "type": "VEC2"
    },
    {
      "bufferView": 0,
      "componentType": 5125,
      "count": 5712,
      "type": "SCALAR"
    },
    {
      "bufferView": 2,
      "byteOffset": 30384,
      "componentType": 5126,
      "count": 172,
      "max": [
        0.24248400330543518,
        0.017117900773882866,
        0.22365599870681763
      ],
      "min": [
        -1.0,
        -0.007931020110845566,
        -0.18731799721717834
      ],
      "type": "VEC3"
    },
    {
      "bufferView": 2,
      "byteOffset": 32448,
      "componentType": 5126,
      "count": 172,
      "max": [
        0.5711014270782471,
        1.0,
        0.9993143677711487
      ],
      "min": [
        -0.870691180229187,
        -1.0,
        -0.9998523592948914
      ],
      "type": "VEC3"
    },
    {
      "bufferView": 3,
      "byteOffset": 20256,
      "componentType": 5126,
      "count": 172,
      "max": [
        0.999879002571106,
        0.2215079963207245,
        0.5690320134162903,
        1.0
      ],
      "min": [
        -0.9998520016670227,
        -0.08505470305681229,
        -0.8675360083580017,
        1.0
      ],
      "type": "VEC4"
    },
    {
      "bufferView": 1,
      "byteOffset": 10128,
      "componentType": 5126,
      "count": 172,
      "max": [
        0.9887300133705139,
        0.9800689816474915
      ],
      "min": [
        0.021950600668787956,
        0.18536600470542908
      ],
      "type": "VEC2"
    },
    {
      "bufferView": 0,
      "byteOffset": 22848,
      "componentType": 5125,
      "count": 588,
      "type": "SCALAR"
    }
  ],
  "asset": {
    "extras": {
      "author": "carloakuma (https://sketchfab.com/carloakuma)",
      "license": "CC-BY-4.0 (http://creativecommons.org/licenses/by/4.0/)",
      "source": "https://sketchfab.com/3d-models/kukri-knife-dd2acefa221c446c850ae0d3f04db2e2",
      "title": "Kukri Knife"
    },
    "generator": "Sketchfab-12.65.0",
    "version": "2.0"
  },
  "bufferViews": [
    {
      "buffer": 0,
      "byteLength": 25200,
      "name": "floatBufferViews",
      "target": 34963
    },
    {
      "buffer": 0,
      "byteLength": 11504,
      "byteOffset": 25200,
      "byteStride": 8,
      "name": "floatBufferViews",
      "target": 34962
    },
    {
      "buffer": 0,
      "byteLength": 34512,
      "byteOffset": 36704,
      "byteStride": 12,
      "name": "floatBufferViews",
      "target": 34962
    },
    {
      "buffer": 0,
      "byteLength": 23008,
      "byteOffset": 71216,
      "byteStride": 16,
      "name": "floatBufferViews",
      "target": 34962
    }
  ],
  "buffers": [
    {
      "byteLength": 94224,
      "uri": "scene.bin"
    }
  ],
  "images": [
    {
      "uri": "textures/03___Default_baseColor.jpeg"
    },
    {
      "uri": "textures/03___Default_metallicRoughness.png"
    },
    {
      "uri": "textures/03___Default_normal.png"
    },
    {
      "uri": "textures/02___Default_baseColor.jpeg"
    },
    {
      "uri": "textures/02___Default_metallicRoughness.png"
    },
    {
      "uri": "textures/02___Default_normal.png"
    }
  ],
  "materials": [
    {
      "doubleSided": true,
      "name": "03___Default",
      "normalTexture": {
        "index": 2
      },
      "occlusionTexture": {
        "index": 1
      },
      "pbrMetallicRoughness": {
        "baseColorTexture": {
          "index": 0
        },
        "metallicFactor": 0.45,
        "metallicRoughnessTexture": {
          "index": 1
        }
      }
    },
    {
      "doubleSided": true,
      "name": "02___Default",
      "normalTexture": {
        "index": 5
      },
      "occlusionTexture": {
        "index": 4
      },
      "pbrMetallicRoughness": {
        "baseColorTexture": {
          "index": 3
        },
        "metallicRoughnessTexture": {
          "index": 4
        }
      }
    }
  ],
  "meshes": [
    {
      "name": "defaultMaterial",
      "primitives": [
        {
          "attributes": {
            "NORMAL": 1,
            "POSITION": 0,
            "TANGENT": 2,
            "TEXCOORD_0": 3
          },
          "indices": 4,
          "material": 1,
          "mode": 4
        }
      ]
    },
    {
      "name": "defaultMaterial",
      "primitives": [
        {
          "attributes": {
            "NORMAL": 6,
            "POSITION": 5,
            "TANGENT": 7,
            "TEXCOORD_0": 8
          },
          "indices": 9,
          "material": 0,
          "mode": 4
        }
      ]
    }
  ],
  "nodes": [
    {
      "children": [
        1
      ],
      "matrix": [
        1.1475921869277954,
        0.0,
        0.0,
        0.0,
        0.0,
        0.6041162966686928,
        -0.9757106455118602,
        0.0,
        0.0,
        0.9757106455118602,
        0.6041162966686928,
        0.0,
        0.0,
        3.318039176747333e-08,
        3.0204553524981754e-08,
        1.0
      ],
      "name": "Sketchfab_model"
    },
    {
      "children": [
        2,
        4
      ],
      "matrix": [
        1.0,
        0.0,
        0.0,
        0.0,
        0.0,
        -4.371139006309477e-08,
        0.999999999999999,
        0.0,
        0.0,
        -0.999999999999999,
        -4.371139006309477e-08,
        0.0,
        0.0,
        0.0,
        0.0,
        1.0
      ],
      "name": "Collada visual scene group"
    },
    {
      "children": [
        3
      ],
      "name": "Cylinder001"
    },
    {
      "mesh": 0,
      "name": "defaultMaterial"
    },
    {
      "children": [
        5
      ],
      "name": "Box001"
    },
    {
      "mesh": 1,
      "name": "defaultMaterial"
    }
  ],
  "samplers": [
    {
      "magFilter": 9729,
      "minFilter": 9987,
      "wrapS": 10497,
      "wrapT": 10497
    }
  ],
  "scene": 0,
  "scenes": [
    {
      "name": "Sketchfab_Scene",
      "nodes": [
        0
      ]
    }
  ],
  "textures": [
    {
      "sampler": 0,
      "source": 0
    },
    {
      "sampler": 0,
      "source": 1
    },
    {
      "sampler": 0,
      "source": 2
    },
    {
      "sampler": 0,
      "source": 3
    },
    {
      "sampler": 0,
      "source": 4
    },
    {
      "sampler": 0,
      "source": 5
    }
  ]
}
